<mxfile host="65bd71144e">
    <diagram id="9xawf11EgOydYplsZZsw" name="Page-1">
        <mxGraphModel dx="903" dy="496" grid="0" gridSize="10" guides="1" tooltips="1" connect="1" arrows="1" fold="1" page="1" pageScale="1" pageWidth="720" pageHeight="420" math="0" shadow="0">
            <root>
                <mxCell id="0"/>
                <mxCell id="1" parent="0"/>
                <mxCell id="3" value="&lt;b&gt;TERMINAL (&lt;/b&gt;&lt;u&gt;cod_terminal&lt;/u&gt;, ciudad_terminal, nombre_terminal, dirección_terminal&lt;b&gt;)&lt;/b&gt;" style="text;html=1;align=center;verticalAlign=middle;resizable=0;points=[];autosize=1;strokeColor=none;fillColor=none;" parent="1" vertex="1">
                    <mxGeometry x="70" y="125" width="460" height="30" as="geometry"/>
                </mxCell>
                <mxCell id="4" value="&lt;b&gt;BUS (&lt;/b&gt;&lt;u&gt;placa&lt;/u&gt;, cod_terminal, capacidad&lt;b&gt;)&lt;/b&gt;" style="text;html=1;align=center;verticalAlign=middle;resizable=0;points=[];autosize=1;strokeColor=none;fillColor=none;" parent="1" vertex="1">
                    <mxGeometry x="70" y="245" width="230" height="30" as="geometry"/>
                </mxCell>
                <mxCell id="34" style="edgeStyle=none;html=1;entryX=0.261;entryY=0.667;entryDx=0;entryDy=0;entryPerimeter=0;" parent="1" target="4" edge="1">
                    <mxGeometry relative="1" as="geometry">
                        <mxPoint x="190" y="295" as="sourcePoint"/>
                        <Array as="points">
                            <mxPoint x="190" y="275"/>
                            <mxPoint x="160" y="275"/>
                            <mxPoint x="130" y="275"/>
                        </Array>
                    </mxGeometry>
                </mxCell>
                <mxCell id="40" style="edgeStyle=none;html=1;" parent="1" edge="1">
                    <mxGeometry relative="1" as="geometry">
                        <mxPoint x="310" y="295" as="sourcePoint"/>
                        <mxPoint x="220" y="225" as="targetPoint"/>
                        <Array as="points">
                            <mxPoint x="310" y="245"/>
                            <mxPoint x="220" y="245"/>
                        </Array>
                    </mxGeometry>
                </mxCell>
                <mxCell id="5" value="&lt;b&gt;VIAJE (&lt;/b&gt;&lt;u&gt;cod_viaje&lt;/u&gt;, placa, núm_ruta, cod_conductor, fecha_viaje, hora_viaje&lt;b&gt;)&lt;/b&gt;" style="text;html=1;align=center;verticalAlign=middle;resizable=0;points=[];autosize=1;strokeColor=none;fillColor=none;" parent="1" vertex="1">
                    <mxGeometry x="70" y="285" width="430" height="30" as="geometry"/>
                </mxCell>
                <mxCell id="37" style="edgeStyle=none;html=1;exitX=0.368;exitY=0.07;exitDx=0;exitDy=0;exitPerimeter=0;" parent="1" source="6" edge="1">
                    <mxGeometry relative="1" as="geometry">
                        <mxPoint x="200" y="130" as="targetPoint"/>
                        <Array as="points">
                            <mxPoint x="283" y="195"/>
                            <mxPoint x="360" y="195"/>
                            <mxPoint x="430" y="195"/>
                            <mxPoint x="510" y="195"/>
                            <mxPoint x="590" y="195"/>
                            <mxPoint x="590" y="100"/>
                            <mxPoint x="430" y="100"/>
                            <mxPoint x="200" y="100"/>
                        </Array>
                    </mxGeometry>
                </mxCell>
                <mxCell id="6" value="&lt;b&gt;CONDUCTOR (&lt;/b&gt;&lt;u&gt;cod_conductor&lt;/u&gt;, cod_terminal,nombre_conductor, apellido&lt;span style=&quot;color: rgb(0, 0, 0);&quot;&gt;_conductor&lt;/span&gt;, licencia_conductor&lt;b&gt;)&lt;/b&gt;" style="text;html=1;align=center;verticalAlign=middle;resizable=0;points=[];autosize=1;strokeColor=none;fillColor=none;" parent="1" vertex="1">
                    <mxGeometry x="70" y="205" width="580" height="30" as="geometry"/>
                </mxCell>
                <mxCell id="7" value="&lt;b&gt;PASAJERO (&lt;/b&gt;&lt;u&gt;c&lt;/u&gt;&lt;u&gt;édula&lt;/u&gt;, nombre_pasajero, apellido&lt;span style=&quot;color: rgb(0, 0, 0);&quot;&gt;_pasajero,&amp;nbsp;&lt;/span&gt;&lt;span style=&quot;color: rgb(0, 0, 0); text-wrap-mode: wrap;&quot;&gt;teléfono_pasajero,&amp;nbsp;&lt;/span&gt;" style="text;html=1;align=center;verticalAlign=middle;resizable=0;points=[];autosize=1;strokeColor=none;fillColor=none;" parent="1" vertex="1">
                    <mxGeometry x="71" y="365" width="440" height="30" as="geometry"/>
                </mxCell>
                <mxCell id="9" value="&lt;h2&gt;&lt;b&gt;&lt;font style=&quot;font-size: 22px;&quot;&gt;Sistema de Gestión de Terminales Terrestres&lt;/font&gt;&lt;/b&gt;&lt;/h2&gt;" style="text;html=1;align=center;verticalAlign=middle;resizable=0;points=[];autosize=1;strokeColor=none;fillColor=none;" parent="1" vertex="1">
                    <mxGeometry x="100" y="25" width="490" height="70" as="geometry"/>
                </mxCell>
                <mxCell id="28" value="&lt;b&gt;BOLETO (&lt;/b&gt;&lt;u style=&quot;&quot;&gt;cod_viaje, cédula&lt;/u&gt;, núm_asiento&lt;span style=&quot;color: rgb(0, 0, 0); text-wrap-mode: wrap;&quot;&gt;)&lt;/span&gt;" style="text;html=1;align=center;verticalAlign=middle;resizable=0;points=[];autosize=1;strokeColor=none;fillColor=none;" parent="1" vertex="1">
                    <mxGeometry x="70" y="325" width="250" height="30" as="geometry"/>
                </mxCell>
                <mxCell id="39" style="edgeStyle=none;html=1;startArrow=classic;startFill=1;endArrow=none;endFill=0;" parent="1" source="29" edge="1">
                    <mxGeometry relative="1" as="geometry">
                        <mxPoint x="240" y="295" as="targetPoint"/>
                        <Array as="points">
                            <mxPoint x="140" y="195"/>
                            <mxPoint x="140" y="205"/>
                            <mxPoint x="100" y="205"/>
                            <mxPoint x="50" y="205"/>
                            <mxPoint x="50" y="285"/>
                            <mxPoint x="240" y="285"/>
                        </Array>
                    </mxGeometry>
                </mxCell>
                <mxCell id="29" value="&lt;b&gt;RUTA (&lt;/b&gt;&lt;u&gt;cod_ruta&lt;/u&gt;, cod_terminal, ciudad_destino, precio&lt;b&gt;)&lt;/b&gt;" style="text;html=1;align=center;verticalAlign=middle;resizable=0;points=[];autosize=1;strokeColor=none;fillColor=none;" parent="1" vertex="1">
                    <mxGeometry x="71" y="165" width="320" height="30" as="geometry"/>
                </mxCell>
                <mxCell id="33" style="edgeStyle=none;html=1;entryX=0.14;entryY=0.833;entryDx=0;entryDy=0;entryPerimeter=0;" parent="1" target="5" edge="1">
                    <mxGeometry relative="1" as="geometry">
                        <mxPoint x="160" y="330" as="sourcePoint"/>
                        <Array as="points">
                            <mxPoint x="160" y="320"/>
                            <mxPoint x="130" y="320"/>
                        </Array>
                    </mxGeometry>
                </mxCell>
                <mxCell id="35" style="edgeStyle=none;html=1;" parent="1" edge="1">
                    <mxGeometry relative="1" as="geometry">
                        <mxPoint x="190" y="245" as="sourcePoint"/>
                        <Array as="points">
                            <mxPoint x="190" y="235"/>
                            <mxPoint x="70" y="235"/>
                            <mxPoint x="70" y="100"/>
                            <mxPoint x="185" y="100"/>
                        </Array>
                        <mxPoint x="185" y="130" as="targetPoint"/>
                    </mxGeometry>
                </mxCell>
                <mxCell id="42" value="" style="endArrow=classic;html=1;exitX=0.403;exitY=0.167;exitDx=0;exitDy=0;exitPerimeter=0;" edge="1" parent="1" source="29">
                    <mxGeometry width="50" height="50" relative="1" as="geometry">
                        <mxPoint x="610" y="340" as="sourcePoint"/>
                        <mxPoint x="200" y="130" as="targetPoint"/>
                        <Array as="points">
                            <mxPoint x="200" y="160"/>
                            <mxPoint x="620" y="160"/>
                            <mxPoint x="620" y="110"/>
                            <mxPoint x="200" y="110"/>
                        </Array>
                    </mxGeometry>
                </mxCell>
                <mxCell id="45" value="&lt;span style=&quot;scrollbar-color: rgb(226, 226, 226) rgb(251, 251, 251); text-wrap-mode: wrap; color: rgb(0, 0, 0);&quot;&gt;correo&lt;/span&gt;&lt;span style=&quot;scrollbar-color: rgb(226, 226, 226) rgb(251, 251, 251); text-wrap-mode: wrap; color: rgb(0, 0, 0);&quot;&gt;_pasajero)&lt;/span&gt;" style="text;html=1;align=center;verticalAlign=middle;resizable=0;points=[];autosize=1;strokeColor=none;fillColor=none;" vertex="1" parent="1">
                    <mxGeometry x="490" y="365" width="110" height="30" as="geometry"/>
                </mxCell>
                <mxCell id="46" value="" style="endArrow=classic;html=1;exitX=0.571;exitY=0.043;exitDx=0;exitDy=0;exitPerimeter=0;entryX=0.225;entryY=0.167;entryDx=0;entryDy=0;entryPerimeter=0;" edge="1" parent="1" source="28" target="7">
                    <mxGeometry width="50" height="50" relative="1" as="geometry">
                        <mxPoint x="220" y="350" as="sourcePoint"/>
                        <mxPoint x="170" y="370" as="targetPoint"/>
                        <Array as="points">
                            <mxPoint x="213" y="320"/>
                            <mxPoint x="370" y="320"/>
                            <mxPoint x="370" y="360"/>
                            <mxPoint x="170" y="360"/>
                        </Array>
                    </mxGeometry>
                </mxCell>
            </root>
        </mxGraphModel>
    </diagram>
</mxfile>